<?xml version="1.0" encoding="UTF-8"?>
<svg width="630px" height="630px" viewBox="0 0 630 630" version="1.1" xmlns="http://www.w3.org/2000/svg" xmlns:xlink="http://www.w3.org/1999/xlink">
    <!-- Generator: Sketch 40.1 (33804) - http://www.bohemiancoding.com/sketch -->
    <title>Slice</title>
    <desc>Created with Sketch.</desc>
    <defs></defs>
    <g id="Page-1" stroke="none" stroke-width="1" fill="none" fill-rule="evenodd">
        <g id="toulouse-js">
            <path d="M423.2,492.19 C435.89,512.91 452.4,528.14 481.6,528.14 C506.13,528.14 521.8,515.88 521.8,498.94 C521.8,478.64 505.7,471.45 478.7,459.64 L463.9,453.29 C421.18,435.09 392.8,412.29 392.8,364.09 C392.8,319.69 426.63,285.89 479.5,285.89 C517.14,285.89 544.2,298.99 563.7,333.29 L517.6,362.89 C507.45,344.69 496.5,337.52 479.5,337.52 C462.16,337.52 451.17,348.52 451.17,362.89 C451.17,380.65 462.17,387.84 487.57,398.84 L502.37,405.18 C552.67,426.75 581.07,448.74 581.07,498.18 C581.07,551.48 539.2,580.68 482.97,580.68 C427.99,580.68 392.47,554.48 375.09,520.14 L423.2,492.19 Z M214.07,497.32 C223.37,513.82 231.83,527.77 252.17,527.77 C271.62,527.77 283.89,520.16 283.89,490.57 L283.89,289.27 L343.09,289.27 L343.09,491.37 C343.09,552.67 307.15,580.57 254.69,580.57 C207.29,580.57 179.84,556.04 165.88,526.495 L214.07,497.32 Z" id="Shape" fill="#FFFFFF"></path>
            <g id="croix-occitane" transform="translate(165.500000, 165.500000) scale(1, -1) translate(-165.500000, -165.500000) translate(45.000000, 45.000000)" fill="#F7DF1E">
                <path d="M115.984318,239.920163 C109.701629,237.07332 109.358045,228.53279 115.444399,225.096945 C116.965988,224.262525 117.898574,224.115275 120.254582,224.262525 C123.641344,224.507943 125.310183,225.538697 126.929939,228.38554 C129.433198,232.704888 127.666191,237.711405 122.905092,239.920163 C120.401833,241.049084 118.53666,241.049084 115.984318,239.920163 L115.984318,239.920163 Z" id="Shape"></path>
                <path d="M113.137475,220.237678 C109.112627,214.93666 102.339104,209.782892 95.810998,207.034216 C92.1297352,205.463544 84.5217923,202.862118 82.1167006,202.371283 C80.7423625,202.076782 80.398778,201.635031 79.1226069,198.297352 L77.6501018,194.517923 L80.496945,190.98391 C84.4236253,186.124644 89.9700611,177.289613 92.6205703,171.694094 C96.007332,164.429735 99.4431772,153.238697 102.339104,140.280652 L102.584521,139.102648 L98.2651731,139.397149 C83.5401222,140.526069 69.3059063,146.41609 50.6050916,159.1778 L46.0403259,162.319145 L42.4572301,161.533809 L38.8741344,160.748473 L38.2360489,157.459878 C37.2543788,152.502444 34.1621181,144.010998 31.904277,140.329735 C29.6955193,136.648473 24.590835,130.709369 20.7132383,127.22444 L18.1118126,124.917515 L18.1118126,120.205499 L18.1118126,115.444399 L21.6458248,112.499389 C29.2046843,106.167617 32.689613,99.8849287 37.8433809,83.3437882 C38.5305499,81.2331976 38.6287169,81.1350305 41.9173116,80.00611 C43.7824847,79.3680244 45.5985743,78.8771894 45.9912424,78.8771894 C46.3839104,78.8771894 48.0527495,79.9570265 49.7215886,81.2331976 C57.4276986,87.3686354 66.6553971,92.6696538 74.7541752,95.614664 C81.6749491,98.2160896 101.357434,103.320774 101.946436,102.731772 C102.191853,102.437271 100.130346,91.7861507 98.6087576,85.6997963 C94.9765784,71.3183299 89.6755601,60.5199593 81.1350305,49.8688391 L78.3863544,46.4820774 L79.7606925,42.7026477 C80.496945,40.592057 81.2331976,38.6778004 81.4295316,38.4814664 C81.6258656,38.2851324 83.5401222,37.6961303 85.6507128,37.1562118 C96.301833,34.6038697 102.339104,31.3643585 109.897963,24.1 L115.149898,18.9953157 L120.5,18.9953157 L125.850102,18.9953157 L127.028106,20.7132383 C128.893279,23.4619145 135.0778,29.0574338 138.415479,31.0207739 C142.489409,33.4258656 148.673931,35.8800407 154.809369,37.5979633 L159.717719,38.9723014 L161.042974,42.5553971 C161.779226,44.5678208 162.220978,46.3839104 162.073727,46.6784114 C161.877393,46.9729124 160.601222,48.5435845 159.1778,50.1633401 C153.631365,56.593279 148.428513,65.4773931 144.992668,74.4596741 C143.323829,78.7299389 139.937067,91.8352342 138.660896,98.7069246 L137.973727,102.584521 L141.213238,102.240937 C145.925255,101.750102 154.563951,99.7867617 159.815886,98.0688391 C168.258248,95.2219959 177.093279,90.5099796 188.87332,82.6566191 L194.027088,79.2207739 L197.217515,79.8588595 C201.34053,80.6441955 202.174949,81.085947 202.174949,82.4602851 C202.174949,84.8653768 204.28554,91.5898167 206.347047,95.810998 C208.752138,100.719348 213.022403,106.609369 218.323422,112.401222 L221.80835,116.180652 L221.80835,121.33442 C221.80835,124.181263 221.612016,126.488187 221.415682,126.488187 C220.728513,126.488187 213.022403,134.488798 211.451731,136.844807 C208.114053,141.753157 204.236456,150.931772 202.224033,158.686965 L201.684114,160.748473 L197.610183,161.730143 L193.585336,162.760896 L190.885743,160.601222 C183.179633,154.367617 172.872098,148.183096 165.215071,145.139919 C159.128717,142.78391 142.78391,138.759063 139.102648,138.759063 L137.973727,138.759063 L138.70998,142.587576 C139.986151,149.704684 142.78391,160.355804 144.550916,165.116904 C147.937678,174.246436 154.073116,184.995723 160.110387,192.358248 L162.417312,195.205092 L161.092057,198.69002 L159.717719,202.174949 L155.300204,203.30387 C144.060081,206.150713 137.973727,209.586558 128.795112,218.323422 L124.868432,222.053768 L119.861914,222.299185 L114.904481,222.544603 L113.137475,220.237678 L113.137475,220.237678 Z M123.641344,206.690631 C128.058859,202.224033 134.734216,197.806517 141.851324,194.76334 L145.58167,193.143585 L142.931161,189.118737 C137.630143,181.118126 132.96721,170.319756 130.267617,160.01222 C128.451527,152.895112 125.162933,131.494705 125.113849,126.39002 C125.113849,125.457434 124.672098,125.40835 136.648473,126.537271 C155.25112,128.20611 170.319756,133.11446 187.597149,143.127495 C190.542159,144.796334 192.996334,146.121589 193.094501,146.023422 C193.143585,145.925255 194.125255,143.863747 195.205092,141.360489 C198.150102,134.685132 202.420367,127.813442 207.279633,121.825255 L208.506721,120.303666 L205.610794,116.769654 C201.046029,111.174134 197.315682,104.400611 195.106925,97.6761711 C194.61609,96.2527495 194.076171,95.0747454 193.879837,95.0747454 C193.683503,95.0747454 191.671079,96.301833 189.413238,97.8234216 C179.694705,104.302444 168.7,108.130957 150.34277,111.517719 C140.133401,113.333809 125.653768,115.395316 125.2611,115.051731 C124.917515,114.708147 126.488187,101.848269 127.862525,93.3568228 C130.807536,75.5395112 135.372301,62.7287169 142.587576,52.2248473 C145.189002,48.396334 145.630754,47.4637475 144.796334,47.4637475 C144.256415,47.4637475 132.083707,40.101222 129.629532,38.2851324 C128.647862,37.5488798 126.340937,35.6837067 124.524847,34.1130346 C122.757841,32.5423625 121.138086,31.2661914 120.990835,31.2661914 C120.843585,31.2661914 118.438493,32.9841141 115.640733,35.0947047 C110.192464,39.2668024 107.002037,41.2301426 99.0995927,45.4022403 C96.2527495,46.8747454 93.8967413,48.1509165 93.7985743,48.2 C93.7494908,48.2490835 95.0256619,50.4578411 96.694501,53.0592668 C101.259267,60.3727088 107.198371,72.201833 108.916293,77.4046843 C111.95947,86.7305499 114.070061,98.2651731 114.659063,109.407128 L114.953564,115.198982 L112.990224,115.198982 C108.474542,115.198982 90.9517312,112.450305 83.1474542,110.486965 C71.8582485,107.689206 62.0415479,103.615275 51.5376782,97.3816701 L47.8564155,95.2219959 L44.8132383,101.406517 C41.6228106,107.88554 38.0397149,112.990224 33.4258656,117.751324 C31.413442,119.812831 30.8244399,120.696334 31.2171079,121.187169 C31.4625255,121.530754 33.5731161,124.132179 35.8309572,126.979022 C38.2360489,130.0222 41.5737271,135.028717 43.8315682,139.151731 C45.9912424,142.980244 47.905499,146.121589 48.101833,146.121589 C48.298167,146.121589 50.1142566,144.943585 52.1757637,143.471079 C61.0107943,137.139308 73.1344196,132.230957 86.0924644,129.727699 C96.301833,127.764358 114.560896,125.555601 115.149898,126.193686 C115.59165,126.635438 114.511813,136.501222 113.039308,145.385336 C110.192464,162.711813 105.529532,175.42444 97.3816701,188.284318 C95.614664,191.082077 94.2403259,193.438086 94.2894094,193.487169 C94.3875764,193.536253 95.4183299,193.928921 96.6454175,194.370672 C102.191853,196.481263 112.499389,202.960285 118.242159,207.917719 C119.174745,208.752138 120.205499,209.390224 120.450916,209.439308 C120.745418,209.439308 122.168839,208.21222 123.641344,206.690631 L123.641344,206.690631 Z" id="Shape"></path>
                <path d="M167.080244,209.242974 C161.337475,206.690631 160.797556,198.395519 166.098574,194.76334 C172.184929,190.591242 180.725458,196.235845 179.105703,203.352953 C178.2222,207.279633 174.933605,209.930143 171.056008,209.930143 C169.68167,209.881059 167.914664,209.586558 167.080244,209.242974 L167.080244,209.242974 Z" id="Shape"></path>
                <path d="M64.4466395,208.555804 C58.4093686,204.727291 58.6547862,196.530346 64.9374745,193.683503 C68.3733198,192.112831 71.5637475,192.603666 74.2633401,195.106925 C78.1409369,198.739104 77.7482688,204.972709 73.4780041,208.015886 C71.2692464,209.586558 66.5572301,209.881059 64.4466395,208.555804 L64.4466395,208.555804 Z" id="Shape"></path>
                <path d="M35.5364562,178.811202 C32.0515275,177.289613 29.8918534,172.872098 30.8244399,169.338086 C32.885947,161.730143 43.1934827,160.503055 46.5802444,167.521996 C47.8564155,170.123422 47.807332,172.381263 46.4820774,175.080855 C44.5187373,178.909369 39.610387,180.578208 35.5364562,178.811202 L35.5364562,178.811202 Z" id="Shape"></path>
                <path d="M196.186762,178.516701 C193.63442,177.142363 192.210998,174.933605 191.96558,171.841344 C191.769246,169.68167 191.96558,168.847251 193.045418,167.031161 C195.352342,163.104481 200.457026,161.681059 204.334623,163.9389 C209.979226,167.129328 210.273727,174.246436 204.972709,178.2222 C203.058452,179.645621 198.54277,179.792872 196.186762,178.516701 L196.186762,178.516701 Z" id="Shape"></path>
                <path d="M4.27026477,127.960692 C1.71792261,126.586354 0.294501018,124.377597 0.0490835031,121.383503 C-0.196334012,118.143992 0.785336049,115.7389 3.1413442,113.922811 C6.82260692,111.125051 12.5162933,112.057637 15.3631365,115.837067 C16.9338086,117.947658 16.8356415,123.199593 15.2158859,125.457434 C12.9089613,128.647862 7.85336049,129.825866 4.27026477,127.960692 L4.27026477,127.960692 Z" id="Shape"></path>
                <path d="M230.054379,128.451527 C226.225866,127.322607 223.722607,124.181263 223.673523,120.450916 C223.526273,113.137475 231.919552,109.308961 237.564155,114.070061 C241.98167,117.800407 241.196334,125.064766 236.042566,127.715275 C234.324644,128.598778 231.625051,128.942363 230.054379,128.451527 L230.054379,128.451527 Z" id="Shape"></path>
                <path d="M35.7818737,77.2574338 C33.3276986,75.9812627 31.3643585,72.8399185 31.3643585,70.1894094 C31.3643585,65.6246436 35.3401222,61.6979633 40.003055,61.6979633 C46.9729124,61.6979633 50.9486762,70.1403259 46.4329939,75.2940937 C43.5861507,78.5336049 39.5613035,79.2698574 35.7818737,77.2574338 L35.7818737,77.2574338 Z" id="Shape"></path>
                <path d="M197.610183,77.2083503 C189.658656,74.3124236 190.100407,63.4158859 198.248269,61.2071283 C204.187373,59.5873727 210.02831,65.2810591 208.506721,71.2692464 C207.328717,75.9321792 202.027699,78.8281059 197.610183,77.2083503 L197.610183,77.2083503 Z" id="Shape"></path>
                <path d="M67.0971487,47.8564155 C64.692057,47.2183299 61.9433809,44.4696538 61.3052953,42.0154786 C59.9800407,37.1562118 63.1704684,32.4441955 68.3242363,31.4625255 C72.201833,30.7753564 77.0610998,34.0639511 77.7973523,37.8924644 C78.9753564,44.3714868 73.4289206,49.5252546 67.0971487,47.8564155 L67.0971487,47.8564155 Z" id="Shape"></path>
                <path d="M166.785743,46.8256619 C163.742566,45.2059063 162.319145,42.6535642 162.564562,39.0704684 C162.859063,34.0639511 166.491242,30.9716904 171.595927,31.3643585 C176.749695,31.80611 180.234623,36.4199593 179.105703,41.4264766 C178.516701,43.9297352 177.191446,45.5494908 174.688187,46.8747454 C171.939511,48.2490835 169.53442,48.2490835 166.785743,46.8256619 L166.785743,46.8256619 Z" id="Shape"></path>
                <path d="M119.291242,16.5411405 C118.407739,16.3448065 117.082485,15.706721 116.346232,15.2158859 C114.726477,14.0378819 112.861303,10.4057026 112.861303,8.44236253 C112.861303,6.28268839 114.824644,2.74867617 116.640733,1.52158859 C124.346843,-3.58309572 133.574542,5.49735234 128.420774,13.1543788 C126.506517,16.001222 122.825255,17.3755601 119.291242,16.5411405 L119.291242,16.5411405 Z" id="Shape"></path>
            </g>
        </g>
    </g>
</svg>